<svg width="78" height="78" viewBox="0 0 78 78" fill="none" xmlns="http://www.w3.org/2000/svg">
<circle cx="39" cy="39" r="35.75" fill="white" stroke="#283DE6" stroke-width="0.5"/>
<path d="M74.0789 40.2957C76.2298 40.3751 77.929 42.1883 77.6354 44.3205C76.7811 50.5244 74.442 56.4516 70.7929 61.5878C66.3889 67.7866 60.2689 72.5626 53.1859 75.3285C46.1029 78.0943 38.3659 78.7293 30.9267 77.1552C23.4875 75.5812 16.6707 71.8667 11.3151 66.469C5.95941 61.0712 2.29849 54.2256 0.782723 46.7743C-0.733042 39.323 -0.0375248 31.5912 2.7837 24.53C5.60493 17.4689 10.4288 11.3865 16.6618 7.03119C21.8264 3.42241 27.7718 1.12983 33.9822 0.324124C36.1166 0.0472055 37.9164 1.76059 37.979 3.91203V3.91203C38.0416 6.06347 36.3409 7.83343 34.214 8.16354C29.5243 8.89141 25.0444 10.6825 21.1262 13.4203C16.1389 16.9052 12.2791 21.772 10.0217 27.4219C7.76433 33.0719 7.20782 39.2585 8.42065 45.2206C9.63348 51.1827 12.5628 56.6602 16.8481 60.9792C21.1334 65.2982 26.5878 68.2702 32.5402 69.5297C38.4926 70.7892 44.6834 70.2811 50.3508 68.068C56.0182 65.855 60.9151 62.0334 64.4389 57.0735C67.2074 53.1769 69.0335 48.7112 69.798 44.0273C70.1448 41.9031 71.928 40.2162 74.0789 40.2957V40.2957Z" fill="url(#paint0_linear_2653_2561)"/>
<path d="M48.6808 42.9315V45.0218H46.1366V42.9315H48.6808ZM35.0416 36.9116V45.0218H32.4974V36.9116H35.0416ZM39.5874 39.2177V45.0218H37.045V39.2177H39.5874ZM44.1332 40.7315V45.0218H41.5908V40.7315H44.1332Z" fill="#58B2FF"/>
<path d="M30.2434 30.6038V46.6698H49.6619V49H29.1226C28.5031 49 28 48.4774 28 47.834V30.6038H30.2434ZM35.2797 30.3062L35.0935 31.82C35.0362 32.2868 34.6262 32.616 34.1768 32.5583C33.7275 32.4988 33.4106 32.073 33.4661 31.6062L33.9405 27.7715C33.9656 27.5018 34.1142 27.2489 34.3577 27.1075C34.5797 26.9792 34.8321 26.9699 35.0523 27.0573L38.6081 28.48C39.0306 28.6492 39.2401 29.1421 39.0771 29.581C38.9142 30.0198 38.4398 30.2374 38.0172 30.0682L36.8033 29.5828C38.1336 31.4574 39.7271 33.0233 41.4476 34.2432C43.9255 36.0007 46.6577 37.0328 49.2376 37.2262C49.6906 37.2597 50.0307 37.667 49.9985 38.1375C49.9663 38.608 49.5742 38.9613 49.1212 38.9278C46.2584 38.7177 43.2398 37.5833 40.522 35.6548C38.5669 34.2693 36.764 32.4691 35.2797 30.3062Z" fill="#58B2FF"/>
<defs>
<linearGradient id="paint0_linear_2653_2561" x1="-4.91935" y1="0.0274374" x2="90.239" y2="9.68422" gradientUnits="userSpaceOnUse">
<stop stop-color="#202658"/>
<stop stop-color="#202658"/>
<stop offset="0.0001" stop-color="#06A1F9"/>
<stop offset="1" stop-color="#4032EB"/>
<stop offset="1" stop-color="#4032EB"/>
</linearGradient>
</defs>
</svg>
