<svg width="24" height="25" viewBox="0 0 24 25" fill="none" xmlns="http://www.w3.org/2000/svg">
<path fill-rule="evenodd" clip-rule="evenodd" d="M15.3594 6.25646C15.3594 6.13829 15.3589 6.02011 15.3585 5.90195C15.3574 5.6302 15.3563 5.35853 15.3609 5.0871C15.3684 4.61977 15.6267 4.38763 16.121 4.38966C16.5858 4.3917 16.8497 4.63962 16.8522 5.09321C16.8567 5.86447 16.8572 6.63522 16.8522 7.40647C16.8492 7.85701 16.5798 8.10646 16.115 8.10798C15.6287 8.10951 15.3679 7.86872 15.3604 7.40036C15.3563 7.13826 15.3573 6.87616 15.3584 6.61405V6.61391C15.3589 6.49476 15.3594 6.37561 15.3594 6.25646ZM6.77322 5.76076V5.76099C6.75892 5.75303 6.74795 5.74599 6.7391 5.74031L6.73909 5.7403L6.73909 5.7403C6.72435 5.73084 6.71545 5.72513 6.70675 5.72513C6.54248 5.72416 6.37805 5.72571 6.21364 5.72727C5.86135 5.73059 5.5091 5.73392 5.15847 5.71241C4.4578 5.66914 3.99751 6.20563 4.00001 6.89532C4.00989 9.90047 4.00879 12.9056 4.00768 15.9107C4.00728 17.0102 4.00687 18.1096 4.00701 19.2091C4.00751 19.9726 4.41432 20.3889 5.16247 20.3889C9.72534 20.39 14.2887 20.3895 18.8516 20.3884H18.8578C18.9718 20.3884 19.0894 20.3885 19.1984 20.3615C19.7067 20.2347 19.9995 19.8306 19.9995 19.2529C20.0002 16.4937 20 13.7349 19.9998 10.9759L19.9995 6.8373C19.9995 6.7696 19.9985 6.70139 19.99 6.63421C19.9356 6.19494 19.6292 5.78316 19.2144 5.75007C18.7889 5.71588 18.3599 5.72331 17.924 5.73085C17.7368 5.73409 17.5483 5.73735 17.3583 5.73735V6.02849C17.3581 6.18339 17.3583 6.33833 17.3585 6.49329V6.49332V6.49335V6.49338V6.49341V6.49344V6.49347V6.4935V6.49353V6.49356V6.49359V6.49362C17.359 6.88135 17.3594 7.2692 17.3548 7.65679C17.3503 8.00596 17.2003 8.28948 16.895 8.44625C16.4077 8.69668 15.8965 8.72213 15.4117 8.45083C14.9714 8.20447 14.838 7.78048 14.8509 7.28573C14.8603 6.92841 14.8581 6.57084 14.8559 6.2098C14.8549 6.05087 14.8539 5.89128 14.8539 5.73073H9.30453C9.30303 5.76233 9.3012 5.79252 9.29942 5.82178L9.29942 5.82181C9.29587 5.88019 9.29254 5.93489 9.29254 5.98981C9.29219 6.15425 9.29258 6.31874 9.29298 6.48326V6.48329V6.48332V6.48335V6.48338V6.48341V6.48344V6.48347V6.4835V6.48353V6.48355V6.48358V6.48365C9.2937 6.78548 9.29442 7.08737 9.29054 7.38905C9.28454 7.88329 9.10563 8.30118 8.64834 8.50733C8.18806 8.71449 7.70428 8.71958 7.26499 8.42385C6.89066 8.1719 6.77072 7.78404 6.77272 7.34426C6.77412 6.97069 6.7738 6.59711 6.77348 6.22828L6.77322 5.76099L6.77372 5.76127L6.77322 5.76076ZM18.952 19.3373V9.85466H5.05202V19.3373H18.952ZM8.77511 6.62344V6.62339V6.62333V6.62327V6.62322V6.62316V6.62311V6.62305V6.62299V6.62294V6.62288C8.77457 6.50334 8.77403 6.38382 8.77403 6.26435L8.77453 6.26385C8.77453 6.14531 8.77517 6.02678 8.77582 5.90825C8.7773 5.63734 8.77879 5.36642 8.77253 5.09551C8.76203 4.63072 8.49416 4.39196 8.00838 4.39756C7.5481 4.40265 7.29722 4.65108 7.29522 5.11536C7.29222 5.87745 7.29222 6.63904 7.29522 7.40113C7.29672 7.86949 7.53061 8.10926 7.9784 8.11435C8.51915 8.12097 8.76403 7.90716 8.77303 7.40724C8.77748 7.14614 8.7763 6.88479 8.77511 6.62354V6.62353V6.62352V6.62351V6.6235V6.62349V6.62348V6.62347V6.62346V6.62345V6.62344ZM13.4356 13.0265C13.3579 13.0265 13.2802 13.0262 13.2025 13.0259C13.0138 13.0252 12.8253 13.0244 12.637 13.028C12.473 13.0311 12.3931 12.972 12.3956 12.7913C12.4026 12.3169 12.4021 11.8419 12.3956 11.3674C12.3936 11.2035 12.46 11.1343 12.616 11.1348C13.1737 11.1358 13.7309 11.1363 14.2887 11.1348C14.4486 11.1348 14.5061 11.2132 14.5041 11.3725C14.4986 11.8388 14.4966 12.3051 14.5046 12.771C14.5076 12.9557 14.4436 13.0347 14.2592 13.0291C14.0671 13.0234 13.8748 13.0246 13.6826 13.0259H13.6825H13.6825H13.6824H13.6823H13.6823H13.6822H13.6822H13.6821H13.6821C13.5999 13.0265 13.5177 13.027 13.4356 13.027V13.0265ZM16.2145 13.0259H16.2145H16.2146H16.2146H16.2147H16.2147H16.2148H16.2149H16.2149C16.2948 13.0262 16.3747 13.0265 16.4546 13.0265L16.4541 13.0275C16.5363 13.0275 16.6185 13.0272 16.7007 13.0269H16.7008H16.7008H16.7009H16.7009H16.701H16.701H16.7011C16.8933 13.0263 17.0856 13.0257 17.2777 13.0285C17.4336 13.0305 17.5046 12.9679 17.5031 12.8025C17.4981 12.3194 17.4986 11.8362 17.5031 11.3531C17.5046 11.1999 17.4356 11.1357 17.2937 11.1357C16.7275 11.1357 16.1617 11.1357 15.596 11.1363C15.449 11.1363 15.3946 11.2141 15.3961 11.3618C15.4011 11.8362 15.4026 12.3112 15.3956 12.7857C15.3931 12.9618 15.462 13.031 15.631 13.028C15.8251 13.0244 16.0195 13.0251 16.2137 13.0259H16.2138H16.2139H16.214H16.214H16.2141H16.2142H16.2143H16.2145ZM7.46937 13.7888C7.5483 13.7888 7.62724 13.7891 7.70616 13.7895H7.7062H7.70624H7.70628H7.70631H7.70635H7.70639H7.70643C7.89375 13.7903 8.081 13.7912 8.26799 13.7872C8.43492 13.7837 8.50938 13.8478 8.50688 14.026C8.49989 14.5005 8.50089 14.9754 8.50688 15.4499C8.50888 15.6138 8.43991 15.6815 8.28449 15.681C7.72675 15.6795 7.16951 15.6795 6.61177 15.681C6.45184 15.681 6.39637 15.6011 6.39837 15.4418C6.40436 14.9673 6.40386 14.4923 6.39837 14.0179C6.39637 13.8544 6.46334 13.7862 6.62026 13.7883C6.81994 13.7908 7.01961 13.7903 7.21929 13.7897C7.30248 13.7895 7.38567 13.7893 7.46887 13.7893L7.46937 13.7888ZM10.2093 15.6796H10.2093H10.2094H10.2094H10.2094H10.2094H10.2094C10.2853 15.68 10.3611 15.6805 10.4369 15.6805C10.5192 15.6805 10.6016 15.68 10.6839 15.6796C10.8762 15.6787 11.0685 15.6777 11.2606 15.682C11.4425 15.6861 11.5104 15.6072 11.5069 15.4218C11.499 14.9642 11.4995 14.5065 11.5069 14.0489C11.5099 13.8686 11.4535 13.7841 11.2656 13.7862C10.7248 13.7923 10.1836 13.7918 9.64282 13.7862C9.45941 13.7841 9.39394 13.8595 9.39743 14.0448C9.40643 14.5024 9.40843 14.9601 9.39694 15.4178C9.39194 15.624 9.4774 15.6876 9.66331 15.6825C9.84499 15.6775 10.0272 15.6785 10.2093 15.6796ZM13.4396 15.6809C13.3635 15.6809 13.2873 15.6807 13.2112 15.6805H13.2112H13.2111H13.2111H13.2111H13.211C13.0209 15.6801 12.8308 15.6797 12.641 15.6819C12.4825 15.6839 12.3926 15.6335 12.3956 15.4482C12.4031 14.9737 12.4016 14.4988 12.3961 14.0243C12.3941 13.8655 12.4506 13.7876 12.612 13.7881C13.1697 13.7906 13.727 13.7906 14.2847 13.7881C14.4446 13.7871 14.5061 13.8583 14.5041 14.0197C14.4991 14.4942 14.4976 14.9692 14.5046 15.4436C14.5071 15.6243 14.4266 15.6844 14.2637 15.6824C14.0717 15.6795 13.8794 15.6802 13.6872 15.6808H13.6871H13.687H13.687H13.6869H13.6868H13.6868C13.6045 15.6811 13.5223 15.6814 13.4401 15.6814L13.4396 15.6809ZM16.7036 13.7898H16.7035C16.6212 13.7895 16.5388 13.7892 16.4566 13.7892L16.4571 13.7898C16.3771 13.7898 16.2972 13.7901 16.2172 13.7904H16.2171H16.217H16.217H16.2169C16.0224 13.7911 15.8278 13.7918 15.6335 13.7882C15.4665 13.7847 15.3931 13.8498 15.3956 14.028C15.4026 14.5025 15.4021 14.9774 15.3956 15.4519C15.3931 15.6184 15.465 15.6815 15.6185 15.6815C16.0367 15.6807 16.4546 15.6808 16.8727 15.6809H16.8728H16.8728H16.8729H16.8729L17.2912 15.681C17.4321 15.681 17.5046 15.6204 17.5031 15.4662C17.4986 14.983 17.4981 14.4999 17.5031 14.0168C17.5046 13.8529 17.4376 13.7857 17.2802 13.7882C17.0881 13.7911 16.8958 13.7904 16.7036 13.7898ZM13.4276 18.3403C13.351 18.3403 13.2745 18.3399 13.198 18.3396C13.0163 18.3387 12.8349 18.3379 12.6535 18.3418C12.4801 18.3454 12.3926 18.2848 12.3956 18.0914C12.4036 17.625 12.4026 17.1582 12.3956 16.6919C12.3931 16.5219 12.4481 16.4399 12.623 16.4414C13.1727 16.4455 13.722 16.4455 14.2717 16.4414C14.4431 16.4399 14.5071 16.5127 14.5046 16.6863C14.4976 17.1526 14.4976 17.6194 14.5046 18.0858C14.5076 18.2736 14.4311 18.3459 14.2522 18.3423C14.0598 18.3381 13.8674 18.339 13.6751 18.34H13.6751H13.6751H13.6751H13.675H13.6749C13.5926 18.3404 13.5103 18.3408 13.4281 18.3408L13.4276 18.3403ZM16.1727 18.34L16.4475 18.3402C16.5321 18.3402 16.6168 18.34 16.7014 18.3398C16.8916 18.3394 17.0819 18.339 17.2722 18.3407C17.4241 18.3422 17.5036 18.2812 17.5026 18.1152C17.4986 17.6316 17.4986 17.1485 17.5026 16.6648C17.5041 16.5172 17.4491 16.4429 17.2996 16.4429C16.7334 16.4439 16.1672 16.4439 15.6009 16.4429C15.455 16.4429 15.394 16.5111 15.3955 16.6623C15.4 17.1454 15.4005 17.629 15.3955 18.1127C15.394 18.2786 15.4705 18.3412 15.6229 18.3402C15.8062 18.3395 15.9894 18.3398 16.1727 18.34ZM7.6942 16.4436H7.69421C7.87998 16.4447 8.06578 16.4458 8.25109 16.4412C8.42501 16.4366 8.51147 16.4931 8.50797 16.6886C8.49897 17.1549 8.50047 17.6217 8.50747 18.088C8.51047 18.2769 8.4305 18.3441 8.25309 18.3426C7.72034 18.338 7.18708 18.338 6.65433 18.3426C6.47941 18.3441 6.39545 18.282 6.39845 18.0901C6.40645 17.6238 6.40745 17.1569 6.39845 16.6906C6.39445 16.4962 6.47792 16.4366 6.65283 16.4412C6.83849 16.4458 7.02414 16.4447 7.2098 16.4436C7.29052 16.4432 7.37124 16.4427 7.45196 16.4427C7.53267 16.4427 7.61343 16.4432 7.6942 16.4436ZM10.173 18.3399C10.2647 18.3401 10.3563 18.3402 10.4479 18.3402L10.4484 18.3392C10.5464 18.3394 10.6444 18.3393 10.7425 18.3391C10.9191 18.3389 11.0958 18.3386 11.2726 18.3402C11.423 18.3413 11.507 18.2842 11.506 18.1173C11.503 17.6255 11.5035 17.1332 11.5055 16.6414C11.5065 16.4999 11.4375 16.4424 11.306 16.4424H11.305C10.7391 16.4429 10.1732 16.4434 9.60734 16.4424C9.46291 16.4424 9.39794 16.5065 9.39944 16.6593C9.40444 17.1429 9.40444 17.626 9.39944 18.1096C9.39794 18.2741 9.46941 18.3413 9.62383 18.3402C9.80673 18.3392 9.98985 18.3396 10.173 18.3399Z" fill="#5E5A7A"/>
</svg>
