<svg width="15" height="13" viewBox="0 0 15 13" fill="none" xmlns="http://www.w3.org/2000/svg">
<g id="&#226;&#128;&#156;" style="mix-blend-mode:multiply">
<path d="M15 0.206543L15 4.15099C15 5.66951 14.7575 7.07691 14.2724 8.37321C13.75 9.66951 12.8731 10.9473 11.6418 12.2065L9.45896 10.5954C10.2799 9.70654 10.8769 8.87321 11.25 8.09543C11.6231 7.35469 11.847 6.61395 11.9216 5.87321L9.29105 5.87321L9.29105 0.206542L15 0.206543ZM5.70896 0.206542L5.70896 4.15099C5.70896 5.66951 5.46642 7.07691 4.98134 8.37321C4.45896 9.66951 3.58209 10.9473 2.35075 12.2065L0.167911 10.5954C0.988806 9.70654 1.58582 8.87321 1.95896 8.09543C2.33209 7.35469 2.55597 6.61395 2.6306 5.87321L-3.99997e-07 5.87321L9.5399e-08 0.206542L5.70896 0.206542Z" fill="#84E1FE"/>
</g>
</svg>
