<svg width="15" height="13" viewBox="0 0 15 13" fill="none" xmlns="http://www.w3.org/2000/svg">
<g id="&#226;&#128;&#156;" style="mix-blend-mode:multiply">
<path d="M0 12.2065V8.2621C0 6.74358 0.242537 5.33617 0.727612 4.03988C1.25 2.74358 2.12687 1.4658 3.35821 0.206543L5.54104 1.81765C4.72015 2.70654 4.12313 3.53988 3.75 4.31766C3.37687 5.0584 3.15299 5.79914 3.07836 6.53988H5.70895V12.2065H0ZM9.29105 12.2065V8.2621C9.29105 6.74358 9.53358 5.33617 10.0187 4.03988C10.541 2.74358 11.4179 1.4658 12.6493 0.206543L14.8321 1.81765C14.0112 2.70654 13.4142 3.53988 13.041 4.31766C12.6679 5.0584 12.444 5.79914 12.3694 6.53988H15V12.2065H9.29105Z" fill="#84E1FE"/>
</g>
</svg>
