<svg width="78" height="78" viewBox="0 0 78 78" fill="none" xmlns="http://www.w3.org/2000/svg">
<path d="M31.994 30.0871L31.9958 30.0853C32.9156 29.1637 34.0089 28.4328 35.2129 27.9346C36.4168 27.4364 37.7077 27.1808 39.011 27.1826L39.0131 25.6826L39.0136 27.1826C41.3117 27.182 43.5387 27.9771 45.3151 29.4322C47.0915 30.8873 48.3072 32.9121 48.7557 35.1614C49.2043 37.4106 48.8579 39.7457 47.7755 41.7687C46.6931 43.7918 44.9414 45.378 42.8185 46.2564C40.6956 47.1348 38.3332 47.251 36.1341 46.5851C33.9349 45.9191 32.0356 44.5124 30.7593 42.6051C29.483 40.6979 28.9087 38.4081 29.1337 36.1258C29.3588 33.8434 30.3695 31.7093 31.994 30.0871Z" stroke="#58B2FF" stroke-width="3"/>
<path d="M43.134 33.8162L40.5127 34.2379C40.4276 33.989 40.308 33.7532 40.1573 33.5375C40.0093 33.3731 39.8304 33.2393 39.6308 33.1436V35.2152C41.0547 35.6028 42.006 36.0109 42.4847 36.4395C42.7925 36.7153 43.0368 37.0544 43.201 37.4335C43.3651 37.8125 43.445 38.2226 43.4354 38.6355C43.4416 39.133 43.3247 39.6244 43.095 40.066C42.6794 40.8796 41.9627 41.4994 41.0969 41.7938C40.6212 41.9386 40.1279 42.0174 39.6308 42.0279V43.3767H38.6132V42.0279C38.0424 41.9905 37.4793 41.8767 36.9388 41.6898C36.5254 41.538 36.1461 41.3063 35.8225 41.0079C35.5289 40.7438 35.285 40.4291 35.1026 40.079C34.9202 39.6941 34.7949 39.2848 34.7305 38.864L37.5676 38.5277C37.6125 38.8865 37.7289 39.2327 37.9099 39.5458C38.0946 39.7891 38.3386 39.981 38.6188 40.1032V37.5598C37.9275 37.3852 37.2523 37.1528 36.6002 36.8649C36.179 36.647 35.8234 36.3213 35.5695 35.9211C35.2684 35.4506 35.1167 34.9001 35.1342 34.342C35.1241 33.9457 35.1967 33.5516 35.3472 33.1848C35.4977 32.8179 35.7229 32.4863 36.0086 32.211C36.5946 31.6388 37.4634 31.3192 38.6132 31.2598V30.5557H39.6308V31.2598C40.6826 31.3254 41.4888 31.5781 42.0494 32.0178C42.614 32.4696 42.9997 33.1069 43.1377 33.8162H43.134ZM38.6132 33.1084C38.3728 33.1707 38.1548 33.2995 37.9844 33.4799C37.8624 33.6264 37.7965 33.8114 37.7983 34.002C37.7957 34.2 37.8614 34.3929 37.9844 34.5482C38.1518 34.7353 38.3693 34.8707 38.6113 34.9383V33.1084H38.6132ZM39.6346 40.1682C39.9655 40.1122 40.271 39.9551 40.509 39.7186C40.6886 39.5253 40.7878 39.2708 40.7862 39.007C40.7857 38.782 40.706 38.5643 40.5611 38.3921C40.4048 38.2063 40.0978 38.0205 39.6439 37.8663V40.1645L39.6346 40.1682Z" fill="#58B2FF"/>
<circle cx="39" cy="39" r="35.75" fill="white" stroke="#283DE6" stroke-width="0.5"/>
<path d="M27.288 27.4753L27.2898 27.4735C28.7534 26.0071 30.493 24.844 32.4087 24.0514C34.3243 23.2587 36.3781 22.8521 38.4518 22.855L38.4539 21.355L38.4543 22.855C42.1099 22.854 45.6524 24.1188 48.4783 26.4336C51.3041 28.7483 53.2384 31.9696 53.952 35.5483C54.6656 39.127 54.1145 42.8421 52.3924 46.0607C50.6703 49.2794 47.8836 51.8026 44.5067 53.1999C41.1298 54.5972 37.372 54.782 33.8739 53.7227C30.3758 52.6634 27.3542 50.4256 25.3238 47.3914C23.2933 44.3571 22.3794 40.714 22.7376 37.0826C23.0957 33.4513 24.7037 30.056 27.288 27.4753Z" stroke="#58B2FF" stroke-width="3"/>
<path d="M44.6921 33.8452L40.7253 34.4834C40.5966 34.1067 40.4156 33.7499 40.1876 33.4235C39.9636 33.1747 39.6929 32.9722 39.3909 32.8274V35.9622C41.5455 36.5488 42.9851 37.1664 43.7096 37.8149C44.1753 38.2323 44.5451 38.7454 44.7934 39.3191C45.0417 39.8927 45.1628 40.5132 45.1482 41.138C45.1576 41.8909 44.9807 42.6346 44.633 43.3028C44.0042 44.534 42.9195 45.4719 41.6094 45.9174C40.8896 46.1365 40.1431 46.2557 39.3909 46.2716V48.3127H37.8509V46.2716C36.9872 46.215 36.135 46.0429 35.3171 45.7599C34.6916 45.5303 34.1176 45.1797 33.6279 44.7282C33.1835 44.3284 32.8145 43.8523 32.5384 43.3224C32.2625 42.74 32.0728 42.1207 31.9753 41.4838L36.2687 40.9749C36.3367 41.5178 36.5128 42.0417 36.7867 42.5156C37.0661 42.8837 37.4354 43.1742 37.8594 43.359V39.5102C36.8134 39.246 35.7915 38.8943 34.8047 38.4587C34.1674 38.1289 33.6292 37.6361 33.245 37.0305C32.7894 36.3184 32.5598 35.4854 32.5863 34.6408C32.5711 34.0411 32.6808 33.4447 32.9086 32.8896C33.1364 32.3345 33.4772 31.8327 33.9095 31.4161C34.7963 30.5502 36.111 30.0666 37.8509 29.9767V28.9111H39.3909V29.9767C40.9825 30.076 42.2024 30.4583 43.0508 31.1237C43.9052 31.8075 44.4888 32.7719 44.6978 33.8452H44.6921ZM37.8509 32.774C37.4871 32.8684 37.1573 33.0633 36.8993 33.3363C36.7148 33.558 36.615 33.838 36.6178 34.1263C36.6138 34.4259 36.7132 34.7178 36.8993 34.9529C37.1527 35.236 37.4819 35.4409 37.8481 35.5433V32.774H37.8509ZM39.3965 43.4574C39.8974 43.3726 40.3597 43.1349 40.7197 42.777C40.9916 42.4845 41.1416 42.0994 41.1392 41.7003C41.1385 41.3598 41.0179 41.0303 40.7985 40.7697C40.5621 40.4885 40.0975 40.2074 39.4106 39.9741V43.4518L39.3965 43.4574Z" fill="#58B2FF"/>
<path d="M74.0789 40.2957C76.2298 40.3751 77.929 42.1883 77.6354 44.3205C76.7811 50.5244 74.442 56.4516 70.7929 61.5878C66.3889 67.7866 60.2689 72.5626 53.1859 75.3285C46.1029 78.0943 38.3659 78.7293 30.9267 77.1552C23.4875 75.5812 16.6707 71.8667 11.3151 66.469C5.95941 61.0712 2.29849 54.2256 0.782723 46.7743C-0.733042 39.323 -0.0375248 31.5912 2.7837 24.53C5.60493 17.4689 10.4288 11.3865 16.6618 7.03119C21.8264 3.42241 27.7718 1.12983 33.9822 0.324124C36.1166 0.0472055 37.9164 1.76059 37.979 3.91203V3.91203C38.0416 6.06347 36.3409 7.83343 34.214 8.16354C29.5243 8.89141 25.0444 10.6825 21.1262 13.4203C16.1389 16.9052 12.2791 21.772 10.0217 27.4219C7.76433 33.0719 7.20782 39.2585 8.42065 45.2206C9.63348 51.1827 12.5628 56.6602 16.8481 60.9792C21.1334 65.2982 26.5878 68.2702 32.5402 69.5297C38.4926 70.7892 44.6834 70.2811 50.3508 68.068C56.0182 65.855 60.9151 62.0334 64.4389 57.0735C67.2074 53.1769 69.0335 48.7112 69.798 44.0273C70.1448 41.9031 71.928 40.2162 74.0789 40.2957V40.2957Z" fill="url(#paint0_linear_2653_2573)"/>
<defs>
<linearGradient id="paint0_linear_2653_2573" x1="-4.91935" y1="0.0274374" x2="90.239" y2="9.68422" gradientUnits="userSpaceOnUse">
<stop stop-color="#202658"/>
<stop stop-color="#202658"/>
<stop offset="0.0001" stop-color="#06A1F9"/>
<stop offset="1" stop-color="#4032EB"/>
<stop offset="1" stop-color="#4032EB"/>
</linearGradient>
</defs>
</svg>
