<svg width="78" height="78" viewBox="0 0 78 78" fill="none" xmlns="http://www.w3.org/2000/svg">
<path fill-rule="evenodd" clip-rule="evenodd" d="M48.0882 42.377C48.8852 42.1491 49.595 41.7822 50.1727 41.3174C51.1206 40.554 51.7054 39.5173 51.7054 38.3848C51.7054 37.7513 51.5239 37.1497 51.1984 36.612H51.2008C51.0546 36.3704 50.8801 36.1403 50.6797 35.9261C50.5759 37.3389 50.2175 38.6787 49.6563 39.8978C49.2412 40.7979 48.7107 41.6318 48.0882 42.377ZM40.2995 52.7835L40.9668 54.5905L42.9523 54.6452L41.3795 55.8164L41.9383 57.6576L40.2995 56.5729L38.6606 57.6576L39.2195 55.8164L37.6467 54.6452L39.6321 54.5905L40.2995 52.7835ZM31.8647 50.4434H48.7366V60H31.8647V50.4434ZM41.3205 45.6878V47.1803H41.4361V48.224H38.5073V47.1803H38.6229V45.6787C36.8378 45.4121 35.2061 44.6328 33.8738 43.4935L33.7158 43.915C31.8788 43.8854 30.2164 43.2725 29.0114 42.3018C27.7687 41.3037 27 39.9183 27 38.3825C27 37.5166 27.2476 36.6963 27.6909 35.9603L27.6886 35.958C28.1366 35.2129 28.7874 34.5612 29.5821 34.0508L30.3013 33.5882H29.4689V32H50.3637V33.5882H49.6987L50.4179 34.0508C51.2102 34.5612 51.8587 35.2129 52.3091 35.958H52.3114C52.7524 36.6917 53 37.512 53 38.3825C53 39.9183 52.2313 41.3014 50.9862 42.304C49.7812 43.2747 48.1188 43.8877 46.2819 43.9173L46.1239 43.4935C44.7774 44.6465 43.1268 45.4303 41.3205 45.6878ZM36.9416 49.2699H43.0042V50.3135H36.9416V49.2699ZM37.866 48.224H42.0798V49.2676H37.866V48.224ZM29.8273 41.3174C30.405 41.7845 31.1172 42.1491 31.9142 42.3792C31.2917 41.6341 30.7611 40.8001 30.3437 39.8955C29.7825 38.6787 29.4241 37.3366 29.3203 35.9238C29.1246 36.1335 28.9501 36.3659 28.8016 36.6097H28.7992C28.4761 37.1452 28.2946 37.749 28.2946 38.3825C28.2946 39.5173 28.8794 40.5518 29.8273 41.3174Z" fill="#58B2FF"/>
<circle cx="39" cy="39" r="35.75" fill="white" stroke="#283DE6" stroke-width="0.5"/>
<path d="M74.0789 40.2957C76.2298 40.3751 77.929 42.1883 77.6354 44.3205C76.7811 50.5244 74.442 56.4516 70.7929 61.5878C66.3889 67.7866 60.2689 72.5626 53.1859 75.3285C46.1029 78.0943 38.3659 78.7293 30.9267 77.1552C23.4875 75.5812 16.6707 71.8667 11.3151 66.469C5.95941 61.0712 2.29849 54.2256 0.782723 46.7743C-0.733042 39.323 -0.0375248 31.5912 2.7837 24.53C5.60493 17.4689 10.4288 11.3865 16.6618 7.03119C21.8264 3.42241 27.7718 1.12983 33.9822 0.324124C36.1166 0.0472055 37.9164 1.76059 37.979 3.91203V3.91203C38.0416 6.06347 36.3409 7.83343 34.214 8.16354C29.5243 8.89141 25.0444 10.6825 21.1262 13.4203C16.1389 16.9052 12.2791 21.772 10.0217 27.4219C7.76433 33.0719 7.20782 39.2585 8.42065 45.2206C9.63348 51.1827 12.5628 56.6602 16.8481 60.9792C21.1334 65.2982 26.5878 68.2702 32.5402 69.5297C38.4926 70.7892 44.6834 70.2811 50.3508 68.068C56.0182 65.855 60.9151 62.0334 64.4389 57.0735C67.2074 53.1769 69.0335 48.7112 69.798 44.0273C70.1448 41.9031 71.928 40.2162 74.0789 40.2957V40.2957Z" fill="url(#paint0_linear_2653_2584)"/>
<path fill-rule="evenodd" clip-rule="evenodd" d="M45.5613 35.4341C46.2506 35.2371 46.8645 34.9198 47.3641 34.5178C48.184 33.8576 48.6897 32.9609 48.6897 31.9814C48.6897 31.4336 48.5327 30.9133 48.2513 30.4482H48.2533C48.1269 30.2393 47.9759 30.0403 47.8026 29.855C47.7129 31.0769 47.4029 32.2357 46.9175 33.29C46.5585 34.0684 46.0997 34.7897 45.5613 35.4341ZM38.8251 44.4344L39.4023 45.9972L41.1195 46.0445L39.7592 47.0574L40.2425 48.6498L38.8251 47.7117L37.4077 48.6498L37.8911 47.0574L36.5308 46.0445L38.248 45.9972L38.8251 44.4344ZM31.5302 42.4105H46.1221V50.6757H31.5302V42.4105ZM39.7082 38.2976V39.5884H39.8081V40.491H37.2752V39.5884H37.3751V38.2897C35.8313 38.0591 34.42 37.3851 33.2677 36.3998L33.1311 36.7644C31.5424 36.7388 30.1046 36.2086 29.0625 35.3691C27.9877 34.5059 27.3229 33.3077 27.3229 31.9795C27.3229 31.2306 27.537 30.5211 27.9204 29.8846L27.9184 29.8826C28.3059 29.2382 28.8687 28.6746 29.556 28.2331L30.178 27.8331H29.4581V26.4595H47.5293V27.8331H46.9542L47.5762 28.2331C48.2615 28.6746 48.8223 29.2382 49.2118 29.8826H49.2139C49.5952 30.5172 49.8094 31.2266 49.8094 31.9795C49.8094 33.3077 49.1445 34.504 48.0677 35.3711C47.0256 36.2106 45.5878 36.7407 43.9991 36.7663L43.8625 36.3998C42.698 37.397 41.2704 38.0749 39.7082 38.2976ZM35.921 41.3956H41.1643V42.2982H35.921V41.3956ZM36.7205 40.491H40.3649V41.3936H36.7205V40.491ZM29.7681 34.5178C30.2678 34.9217 30.8837 35.2371 31.573 35.4361C31.0346 34.7917 30.5757 34.0704 30.2148 33.288C29.7294 32.2357 29.4194 31.0749 29.3297 29.8531C29.1604 30.0344 29.0095 30.2354 28.881 30.4462H28.8789C28.5995 30.9094 28.4425 31.4316 28.4425 31.9795C28.4425 32.9609 28.9483 33.8556 29.7681 34.5178Z" fill="#58B2FF"/>
<defs>
<linearGradient id="paint0_linear_2653_2584" x1="-4.91935" y1="0.0274374" x2="90.239" y2="9.68422" gradientUnits="userSpaceOnUse">
<stop stop-color="#202658"/>
<stop stop-color="#202658"/>
<stop offset="0.0001" stop-color="#06A1F9"/>
<stop offset="1" stop-color="#4032EB"/>
<stop offset="1" stop-color="#4032EB"/>
</linearGradient>
</defs>
</svg>
