<svg width="19" height="22" viewBox="0 0 19 22" fill="none" xmlns="http://www.w3.org/2000/svg">
<path d="M3.63258 0.235099C3.63258 0.467103 3.62409 0.696802 3.63413 0.925733C3.68814 2.12954 4.52929 3.03604 5.73235 3.05371C8.18787 3.08982 10.6449 3.08905 13.1005 3.05371C14.3035 3.03604 15.1454 2.13031 15.1994 0.926501C15.2095 0.69757 15.201 0.467871 15.201 0.198992C15.9904 0.213589 16.7714 0.0545665 17.5014 0.374148C18.4436 0.786684 18.831 1.56566 18.831 2.56205C18.831 5.72406 18.831 8.88684 18.831 12.0489C18.831 14.5195 18.8341 16.9908 18.8295 19.4614C18.8272 20.6914 18.1126 21.6271 17.0121 21.8483C16.8131 21.8883 16.6039 21.8906 16.3994 21.8906C11.7569 21.8929 7.11445 21.8921 2.47196 21.8921C0.9471 21.8921 0.00332299 20.9533 0.00177961 19.423C-0.00130715 16.248 0.00100792 13.0729 0.00100792 9.89782C0.00100792 7.43951 -0.00207884 4.98196 0.0025513 2.52364C0.00486637 1.35901 0.67315 0.426387 1.73114 0.252768C2.3292 0.154435 2.95735 0.235099 3.63181 0.235099H3.63258ZM5.06484 12.1679C4.7469 11.8361 4.4799 11.5426 4.19669 11.266C3.83091 10.9096 3.42037 10.8996 3.11246 11.2199C2.8308 11.5134 2.85163 11.939 3.18114 12.277C3.60171 12.7072 4.03077 13.1297 4.45983 13.5515C4.90819 13.9917 5.25699 13.9878 5.7146 13.5369C6.18842 13.0691 6.65761 12.5974 7.12911 12.1272C7.57361 11.6839 8.04356 11.263 8.4487 10.7874C8.59687 10.613 8.69178 10.2766 8.62773 10.0714C8.56291 9.86479 8.28202 9.61512 8.07289 9.59284C7.83984 9.56825 7.52885 9.72267 7.34441 9.89706C6.58276 10.6169 5.85659 11.3736 5.06561 12.1687L5.06484 12.1679ZM5.05867 7.14143C4.72607 6.78805 4.44209 6.45848 4.12724 6.16118C3.82551 5.87617 3.39722 5.89461 3.1225 6.16733C2.86321 6.42468 2.82848 6.85796 3.09394 7.13836C3.58782 7.65922 4.09791 8.16701 4.62343 8.6556C4.89584 8.90912 5.27474 8.90758 5.53557 8.6533C6.53645 7.67766 7.5273 6.69049 8.50812 5.69487C8.74889 5.45057 8.75969 5.14405 8.5714 4.84675C8.39005 4.56097 8.10993 4.46571 7.8028 4.54791C7.62994 4.59477 7.46403 4.72691 7.33207 4.8575C6.58507 5.59577 5.84888 6.34479 5.05867 7.14143ZM5.04246 17.196C4.88426 17.0193 4.75153 16.8633 4.61109 16.715C4.46061 16.5576 4.31013 16.3993 4.1473 16.2549C3.83631 15.9783 3.41188 15.9745 3.13716 16.2341C2.84855 16.5076 2.83002 16.9547 3.1279 17.2643C3.59863 17.7537 4.08016 18.2338 4.57327 18.7009C4.87809 18.9898 5.27937 18.9936 5.57879 18.7009C6.55034 17.7506 7.51341 16.7919 8.46722 15.8247C8.7867 15.5005 8.76818 15.0887 8.46568 14.7999C8.17012 14.5179 7.75727 14.5233 7.43393 14.839C6.77336 15.4836 6.12437 16.1396 5.46998 16.7896C5.34496 16.914 5.21455 17.0331 5.04323 17.196H5.04246ZM13.0457 10.9833C12.3789 10.9833 11.7114 10.981 11.0447 10.9833C10.4983 10.9856 10.1379 11.2768 10.1364 11.7093C10.1348 12.1418 10.496 12.4391 11.04 12.4399C12.3743 12.4429 13.7078 12.4429 15.042 12.4399C15.603 12.4383 15.9202 12.161 15.9117 11.6955C15.904 11.2522 15.5876 10.9879 15.0467 10.9841C14.3799 10.9795 13.7124 10.9833 13.0457 10.9833ZM13.0055 7.37498C13.7255 7.37498 14.4455 7.37958 15.1663 7.37344C15.627 7.3696 15.9086 7.09995 15.9125 6.67973C15.9163 6.25951 15.6432 5.96452 15.1848 5.96067C13.7572 5.94838 12.3303 5.94915 10.9027 5.95914C10.4404 5.96221 10.1179 6.29792 10.1379 6.69971C10.158 7.09688 10.4705 7.37113 10.922 7.37421C11.6165 7.37882 12.311 7.37574 13.0055 7.37498ZM13.0626 16.0498C12.3427 16.0498 11.6227 16.0452 10.9019 16.0513C10.4597 16.0551 10.1433 16.3494 10.1372 16.745C10.131 17.136 10.442 17.461 10.8834 17.4648C12.311 17.4764 13.7379 17.4771 15.1655 17.4656C15.6463 17.4618 15.9241 17.1637 15.9117 16.725C15.9001 16.3102 15.6162 16.0536 15.1462 16.0505C14.4517 16.0459 13.7572 16.049 13.0626 16.049V16.0498Z" fill="#202658"/>
</svg>
